<svg xmlns="http://www.w3.org/2000/svg" width="345" height="345.458" viewBox="0 0 345 345.458">
  <g id="Group_80" data-name="Group 80" transform="translate(-322 -417)">
    <g id="Rectangle_12" data-name="Rectangle 12" transform="translate(322 417)" fill="none" stroke="#015d7a" stroke-width="3">
      <rect width="345" height="345" stroke="none"/>
      <rect x="1.5" y="1.5" width="342" height="342" fill="none"/>
    </g>
    <g id="Group_66" data-name="Group 66">
      <g id="Group_64" data-name="Group 64" transform="translate(473.054 542.503)">
        <path id="Path_33" data-name="Path 33" d="M-8.446-52.068l3.013.135.029.007.176.014,2.925.447.037.021.155.02,2.8.732.054.036.13.024,2.649,1,.03.024.054.011,2.536,1.115.092.078.121.033,2.325,1.4.077.079.078.026,2.135,1.591.06.071.1.066,1.916,1.789.085.12.1.081,1.625,2.014.013.038.045.039,1.515,2.081.056.169.138.159L17.7-36.328l.019.085.036.047.9,2.418.026.143.035.054.619,2.531.014.115.014.026.409,2.615.013.166,0,.01.117,2.7v.088l-.044,2.757,0,0-.014.189-.418,2.793-.017.03-.017.126-.765,2.784-.01.015-.006.036L17.7-13.789l-.03.042-.017.076-1.265,2.739-.01.011,0,.017L14.975-8.151l0,0,0,.007L13.5-5.364l-.077.081-.027.079L11.452-2.667l-.014.007-.007.02L9.371-.131l-.038.018-.018.045L7.027,2.291,7,2.3l-.01.023L4.57,4.594h0v0L2.125,6.869,2.049,6.9l-.029.057-2.69,2-.047.016-.045.047L-3.612,10.8l-.069.02-.054.048-3,1.471-2.915,1.549-.087.022-.055.045L-12.859,15.2l-.123.025-.053.036-3.156.876-.041.005-.013.008-3.14.768-.076.01-.019.011-3.129.583-.124.012-.018.009-3.113.325-.189.01h-.031l-3.08-.055h0l-.08,0-3.013-.2,0,0-.053,0-2.935-.3-.041-.021-.24-.031-2.8-.736-.042-.028-.1-.017-2.666-.953-.025-.019-.045-.009-2.56-1.054-.133-.109-.168-.049-2.287-1.454-.018-.019-.02-.007L-48.6,11.3l-.092-.1-.172-.111-1.89-1.814-.1-.137-.1-.087L-52.526,7l-.01-.028-.032-.027-1.495-2.1-.032-.1-.09-.093L-55.417,2.4l-.038-.146-.073-.094-.919-2.411-.037-.2-.043-.071-.56-2.542L-57.1-3.2l-.013-.024-.315-2.626-.008-.134,0-.005-.083-2.7v-.045h0l0-.092.182-2.753,0-.008.006-.088.406-2.794,0-.008,0-.036.534-2.839.019-.032.016-.105.875-2.825.044-.062.026-.113,1.307-2.7,1.243-2.794.085-.1.034-.108,1.8-2.54,1.75-2.654.037-.02.021-.059,2.031-2.533.035-.016.016-.042,2.233-2.412.027-.012.012-.028,2.372-2.32.09-.036.035-.071,2.675-2,.016-.005.005-.01,2.73-1.949.025-.008.008-.015,2.794-1.86.059-.018.05-.047,2.962-1.567h0l2.892-1.6.113-.03.074-.059,3.082-1.2.076-.015.034-.024,3.124-.979.031,0,.082-.053,3.144-.748.1-.012.023-.013,3.142-.516.169-.014.014-.007,3.128-.19h0l3.06-.191.121,0h0Zm-6.1,3.787-3.069.413-3.105.646-.133.014-2.9.811-3.066,1.083-.009,0,0,0-3.059,1.076L-32.766-42.7l-2.853,1.629L-38.267-39.2l-2.451,2.177h0l-2.447,2.169-2.2,2.319L-47.4-30.087l-1.844,2.46L-50.6-24.9l-.017.019-.007.025-1.445,2.594-.906,2.765h0l-.857,2.755-.661,2.671-.273,2.644.022,2.612.279,2.528.556,2.409.824,2.319.98,2.247L-50.964,2.8l1.3,1.915L-48,6.388l1.883,1.662,1.894,1.536L-42.02,10.8l2.29,1.2,2.447.863,2.706.673,2.723.621,2.794.265,2.957-.044,3.053-.138L-20,13.9l3.038-.611,3.044-.963h0l3.113-1.053h0L-7.8,10.154l2.815-1.612,2.824-1.726L.587,4.953,3.239,3.069,5.593.886l2.158-2.38L9.739-3.946l1.7-2.638.007-.007,0-.007,1.71-2.545,1.3-2.643.961-2.756.793-2.723.441-2.722.268-2.716.109-2.611-.246-2.519-.473-2.441-.762-2.315-.968-2.177-1.3-2.058-1.325-1.99-1.62-1.713L8.532-42.17,6.559-43.625,4.376-44.9,2.087-46.031-.39-46.859l-2.653-.665-2.775-.493L-8.7-48.355l-2.886-.189Z" transform="translate(57.525 52.07)" fill="#015d7a" stroke="#015d7a" stroke-width="3"/>
        <path id="Path_34" data-name="Path 34" d="M7.738-50.73l2.755.221.008,0,.071.005,2.672.423.017.01.069.008,2.569.634.03.019.074.013,2.435.876.028.022.05.011,2.3,1.051.043.038.057.016,2.135,1.263.4.407.152.568-.333.8-.8.333-.581-.16L19.8-45.4,17.626-46.44l-2.338-.82-2.46-.652-2.563-.442L7.6-48.572l-2.735-.015-2.793.2L-.745-48l-2.846.643-.235.027-.732-.3-.3-.732.23-.65.582-.36,2.895-.637.051-.006.011-.006,2.881-.468.086-.007.009,0,2.862-.221.084,0h0l2.818-.006h0Z" transform="translate(40.287 51.633)" fill="#015d7a" stroke="#015d7a" stroke-width="3"/>
      </g>
      <g id="Group_65" data-name="Group 65" transform="translate(438.73 620.414)">
        <path id="Path_35" data-name="Path 35" d="M65.633-95.465l1.877.237.005,0,.031,0,1.637.288.023.013.079.012,1.687.528.048.035.083.02,1.4.723.022.036.078.025,1.347.962.023.044.059.023,1.3,1.2.025.056.051.024,1.2,1.439.025.068.041.023,1.006,1.581.005.017.008.005,1.006,1.676.022.076.043.054.718,1.819h0l.763,1.861.011.054.018.025.574,1.866h0l.62,1.906.016.1.016.027.332,1.933.526,2.019.014.1.01.019.257,2.154v0h0l.267,2.249,0,.073,0,0,.085,2.232.191,2.176,0,.062v0l.059,2.157h0l.065,2.2v.075l-.078,2.138.014,2.037v.009l0,.106-.18,2.123-.036,2.069h0v.027L82.937-50.4h0v.007l-.1,2.166h0v0l-.109,2.166,0,0,0,.069-.209,2.05-.031,2.094,0,0-.015.2-.277,1.864-.237,1.9,0,.008,0,.04-.3,1.878-.274,1.849-.007.013-.006.057L81-32.251l-.01.016-.007.051-.472,1.811-.008.013,0,.032-.537,1.754-.011.015-.006.033-.595,1.651-.472,1.654-.035.05-.022.1-.681,1.409L77.5-22.259l-.552.354-.43-.178-.178-.43.013-.121.31-1.528,0,0,0-.014.347-1.471.179-1.687.007-.013.008-.081.349-1.758.322-1.769.288-1.792.213-1.753.2-1.863,0-.007,0-.044.273-1.867.238-1.9,0-.007,0-.036.282-1.775.061-2.062,0-.005.008-.137.261-2.082.177-2.128h0v0l.191-2.161h0l.2-2.241.154-2.1,0-.008,0-.071.289-2.1.107-2.011,0,0,0-.045.205-2.118.063-2.169h0l.059-2.12-.092-2.173v-.038h0L81.081-70l-.209-2.215h0l-.216-2.1-.5-2-.008-.058-.008-.014-.324-1.907-.6-1.854,0-.014,0,0-.565-1.837-.751-1.828,0-.011,0-.005-.7-1.76-.968-1.613-.971-1.525L74.12-90.092,72.9-91.217l-1.25-.893-1.273-.658-1.557-.491-1.559-.276-1.785-.232-1.825.042-1.959.181-1.983.323h0l-2.206.364-1.959.593-2.044.7h0l-2.192.8-2.257.929L46.83-88.669,44.492-87.34h0L42.117-85.92l-2.524,1.711h0l-2.515,1.755-2.421,1.994-2.528,2.146L29.6-75.98,27.073-73.5,24.459-70.83l-2.423,2.855-2.388,2.967-2.384,3.061-2.185,3-1.956,3.011h0l-1.851,2.851L9.8-50.326h0L8.454-47.784h0L7.21-45.4l-1.054,2.15-.007,0,0,.017L5.036-41.162l-1,1.947L3.212-37.5l-.677,1.474-.013.008-.008.034-.679,1.237-.581,1.137-.017.011-.011.039-.516.825-.263.552-.141.4-.063.044-.064.172-.085.1,0,.091h0v.021l0,.078L.1-31.25l-.05.12.01.025-.164.427-.016.008-.006.016-.129.054-.255.13-.092.01-.071,0-.439-.172-.006-.013-.013-.005-.056-.135-.132-.27-.008-.093,0-.056.081-.195-.007-.318v-.015l.148-.424.154-.192.1-.317.017-.024.01-.047.282-.632.021-.014.016-.056.5-.845.555-1.134.005,0,0-.013.651-1.233.653-1.472,0,0v-.006l.809-1.737.005,0,0-.015,1-1.976,0,0,0-.007,1.1-2.058,1.048-2.15,0,0,0-.01L7.09-48.509h0l1.346-2.549h0l1.49-2.788.019-.011.013-.042,1.876-2.882h0L13.8-59.805l.014-.008.008-.023L16.04-62.86l.009,0,0-.013,2.406-3.071,0,0,0-.005,2.4-2.975.008,0,0-.01,2.451-2.88.024-.011.011-.027L26.01-74.55l.007,0,0-.007,2.545-2.5.011,0,0-.011,2.544-2.352.017-.007.007-.014,2.543-2.16.007,0,0-.005,2.447-2.016.036-.013.013-.024,2.542-1.775.008,0,0,0,2.54-1.729.029-.009.008-.015,2.4-1.442.013,0,0-.006L46.084-90,46.1-90l0-.008,2.249-1.206.056-.014.013-.019,2.295-.968.023,0,.011-.009,2.2-.827.013,0,.005,0,2.054-.731.023,0,.01-.007,2.007-.636.088-.014.024-.014,2.249-.395h.009l2.01-.344.057,0,.008,0,2.012-.2.061,0h0l1.919-.052h.025Z" transform="translate(1.332 95.472)" fill="#015d7a" stroke="#015d7a" stroke-width="3"/>
      </g>
    </g>
    <g id="Group_34" data-name="Group 34" transform="translate(351.958 559.659)">
      <path id="Path_47" data-name="Path 47" d="M4.365-3.489l.007.017.265.11.04.1.078.038.04.053.152.1.106.2.218.109.17.225.022.064.038.02.249.385L5.8-1.9l.1.127.108.294.216.308.053.165.115.145.154.386.387.431.091.24.127.076.315.613.262.461.481.426.592.44h0l.59.443.416.265.614.193h0l.523.168.571-.036.853-.18.789-.268.063-.011.025-.017.7-.194L14.8,2.2l.571-.371.8-.648L16.836.6l.513-.51.407-.608.105-.057.06-.144.554-.556.255-.258.171-.276.1-.252.334-.353.165-.45.063-.037.025-.059.121-.051.009-.016.159-.057.5-.289.222-.041.28-.025.445.15.03,0,.043.021.4.137.047.067.379.136.064.108.1.051.117.3.068.08.034.092.063.032.231.329.138.169.1.282.216.3.009.027.193.259.363.42.04.107.131.126.132.212.2.2.319.214.617.393,0,0,0,0,.49.317.457.188.418.156.371.02h0l.7.037.6.027.452-.125.546-.176.811-.34.112-.023.052-.036.641-.193L31.815.3l.6-.288.092-.021L32.56-.05l.528-.191.447-.25.09-.024.063-.051.432-.183.355-.237.782-.239.031-.012h.122l.151-.079.509-.126.091-.043.234-.015.051,0h0l.535-.016.29-.018.1,0,.385.049.254.065.037.024.09.016.248.089.323.044.156.084.4.107.3.169.188.072.225.053.149.1L40.4-.6l.524.3.1.052h.1l.011,0,.557.1L42.069,0l.358.008.009,0L42.7.04l.345.067.413.011L44.08.063l.143-.007h.03l.528.011.446-.1L45.4-.058l.026-.013.53-.053.452-.165.012,0,0,0,.867-.312.273-.049.061-.032.532-.065.707-.192.538-.2.507-.221.163-.035.07-.047.626-.162h0l.62-.166.089-.012.024-.014.42-.081.563-.156.175-.024.037-.02.706-.1.132-.009.009,0,.394-.02h.033l.7-.022.371-.022.1,0,.2.013.362.046.674-.013h.035l.7.156.107.05.113.018.5,0h.49l.329.032.808.162.016.01.055.007.444.111.357,0h0l.1,0,1.309.092.829.012h.016l.8.02H63.4l.958.032.011,0,.225.021.923.172.846.036h.008l1.116.056h.026l1.114.077,0,0h.026l1.111.105.015.007.1.01,1.1.213.033.019.1.017,1.228.4.662.923-.286.689-.689.286h-.051l-1.226-.063-1.023.05-1.07.1h-.036l0,0L67.516,1.7h-.034l-1.109.056H66.36l-.951.041-.07,0-.189-.012-.918-.112L63.4,1.7h-.017l-.794.02h-.019l-.875.012h-.025l-.078,0-1.309-.062-.508,0H59.76l-.4-.05-.608-.15-.593-.119h-.319l-.638,0h0l-.281-.026-.487-.086-.146-.085-.253-.063-.446-.009-.009,0-.29-.03L54.925.976,54.667.961l-.7-.022h-.027L53.652.924l-.509.044-.528.118L52.5,1.1l-.022.012-.414.059-.563.131h0l-.517.125-.438.185-.045.009-.023.018-.627.234-.1.018-.04.027-.866.238-.18.025-.036.019-.469.06-.706.26h0l-.612.236-.3.057-.07.037-.61.074-.52.141-.364.049-.013.006-.63.012-.621.083-.168.011-.006,0-.635.016h-.043l-.21-.014L42.3,3.181l-.51.011h-.037l-.545-.1-.369-.133h-.2L39.918,2.8l-.487-.243L39.4,2.524l-.042-.011L38.986,2.3l-.124-.033L38.8,2.225,38.662,2.2l-.407-.17-.1-.083-.127-.037-.142-.089-.194-.039L37.6,1.726l-.23-.049-.354-.156-.039,0-.423-.013-.132.063-.649.15H35.74l-.1.063-.129.04-.106.089-.478.208-.469.275-.129.036-.089.07-.56.217L33.137,3l-.036.009-.023.021-.86.41-.089.021-.051.039-.636.233-.78.383-.05.012-.03.025-.613.265-.039.008-.02.016-.691.273-.5.1-.048.022-.871.039h0l-.7.036h0l-.629.035-.1,0-.5-.071-.737-.217-.017-.012-.039-.006-.658-.222-.14-.1-.2-.056-.653-.392,0,0h0l-.649-.4-.021-.022-.024-.007-.486-.321-.079-.148-.2-.084-.476-.48-.06-.146-.222-.223-.166-.284-.3-.373-.032-.088-.057-.03-.35-.514-.364.362-.4.609-.105.057-.06.145-.636.639-.04.017-.016.037-.713.64-.031.012-.012.025-.869.721-.076.027-.026.05-.706.485-.151.047-.041.063-1.021.488-.118.028-.063.045-.758.246L13.28,5.8l-.129.024L13.1,5.86l-1.02.257-.186.023-.03.015-.947.1-.16.009-.4-.055-.812-.225h0l-.809-.23-.146-.1L8.374,5.59l-.648-.4L7.7,5.147l-.083-.028-.642-.48h0l-.64-.482L6.309,4.1,6.24,4.078l-.716-.642L5.4,3.146l-.188-.111-.389-.713L4.807,2.28l-.026-.029-.228-.469-.424-.5L4.05,1.069,3.857.814,3.685.326,3.47-.013,3.408-.228,3.3-.377,3.2-.712,3.059-.973l0-.007L2.95-1.066l-.026.041-.314.149-.1.023-.22.216-.009,0,0,.008-.244.232-.322.129-.09.13L1.269,0,.843.2.66.244.538.56.5.6.328.677.263.787.144.85.1.862.087.879-.2,1.012l-.134.03-.021.028-.14.04-.137.02-.112.052-.382.019-.07.027-.778-.3L-1.984.9-2.006.891l-.1-.24L-2.338.174-2.344.1l0-.055L-2.353.028l0-.158V-.16l.341-.821.293-.122.089-.132.389-.16.11-.022.2-.2L-.762-1.7l.427-.264.241-.053.325-.17L.308-2.2l.017-.026L.487-2.3.548-2.36l.007,0,0-.008.394-.4.16-.067.3-.23.158-.057L1.7-3.2l.212-.172.443-.158.246-.12.04,0,.214-.1.569-.128Z" transform="translate(218 -111)" fill="#015d7a" stroke="#015d7a" stroke-width="3"/>
      <path id="Path_77" data-name="Path 77" d="M175.22,202.447s-12.092-50.061,25.031-50.061H313.484" fill="none" stroke="#015d7a" stroke-width="3"/>
    </g>
  </g>
</svg>
