<svg xmlns="http://www.w3.org/2000/svg" width="348" height="57.855" viewBox="0 0 348 57.855">
  <g id="layer1" transform="translate(0 -19.482)">
    <g id="g9699-6-4-3" transform="translate(0 0.007)">
      <path id="path5888-8-3-9-62-5-3-10-78-675" d="M410.829,361.929s-105.241-.081-148.3.168c-16.327.092-27.55,11.557-29.275,28.9a245.218,245.218,0,0,1-4.785,28.744H410.829Z" transform="translate(-62.829 -342.441)" fill="#fff"/>
      <g id="g7253-9-8-1-9-5-3-5-56" transform="translate(0 73.699)">
        <rect id="rect5214-4-4-2-9-1-8-2-1-3-2-0-2" width="87.131" height="3.632" transform="translate(87.131)" fill="#4285f4"/>
        <rect id="rect5214-4-4-8-5-4-5-2-7-2-5-0-3-9" width="87.131" height="3.632" transform="translate(173.739)" fill="#34a853"/>
        <rect id="rect5214-18-5-9-0-4-0-7-6-61-6-1" width="87.131" height="3.632" transform="translate(260.87)" fill="#fbbc05"/>
        <rect id="rect5214-18-2-3-5-93-09-2-55-1-27" width="87.131" height="3.632" fill="#ea4335"/>
      </g>
    </g>
    <path id="Path_78" data-name="Path 78" d="M276.736,408.319l10.063-5.8a4.959,4.959,0,0,0-4.959-8.584l-17.4,10.041Z" transform="translate(-72.721 -359.552)" fill="#ea4335"/>
    <path id="Path_79" data-name="Path 79" d="M283.443,427.1a4.959,4.959,0,0,0,2.472-9.244l-17.4-10.041a4.959,4.959,0,0,0-4.952,8.584l17.4,10.034A4.923,4.923,0,0,0,283.443,427.1Z" transform="translate(-71.845 -363.376)" fill="#4285f4"/>
    <path id="Path_80" data-name="Path 80" d="M313.848,428.885a4.937,4.937,0,0,0,2.472-.667l17.4-10.034-12.129-4.444-10.215,5.9a4.959,4.959,0,0,0,2.472,9.244Z" transform="translate(-84.951 -365.161)" fill="#fbbc04"/>
    <path id="Path_81" data-name="Path 81" d="M331.266,413.236a4.959,4.959,0,0,0,2.479-9.266l-17.4-10.041a4.959,4.959,0,0,0-4.945,8.591l17.4,10.041a4.952,4.952,0,0,0,2.465.674Z" transform="translate(-84.991 -359.553)" fill="#0f9d58"/>
    <path id="Path_82" data-name="Path 82" d="M371.527,419.579a11.129,11.129,0,0,1-4.1-4.111,11.825,11.825,0,0,1,0-11.6,11.223,11.223,0,0,1,9.8-5.619,11.991,11.991,0,0,1,4.539.855,9.07,9.07,0,0,1,3.495,2.414l-1.885,1.849a6.684,6.684,0,0,0-2.653-1.972,9.012,9.012,0,0,0-7.8.428,8.468,8.468,0,0,0-3.212,3.147,9.729,9.729,0,0,0,0,9.374,8.511,8.511,0,0,0,3.226,3.147,8.845,8.845,0,0,0,4.307,1.117,8.7,8.7,0,0,0,3.676-.689,8.373,8.373,0,0,0,2.552-1.82,6.6,6.6,0,0,0,1.283-2.081,9.191,9.191,0,0,0,.609-2.675h-8.091v-2.4h10.505a9.808,9.808,0,0,1,.152,1.588,12.224,12.224,0,0,1-.645,3.922,8.591,8.591,0,0,1-2.044,3.349,10.433,10.433,0,0,1-8.033,3.27A11.144,11.144,0,0,1,371.527,419.579Z" transform="translate(-100.623 -360.902)" fill="#676c72"/>
    <path id="Path_83" data-name="Path 83" d="M400.74,398.9h6.6a11.9,11.9,0,0,1,5.865,1.392,9.548,9.548,0,0,1,3.85,3.864,12.7,12.7,0,0,1,0,11.361,9.635,9.635,0,0,1-3.85,3.864,11.89,11.89,0,0,1-5.865,1.385h-6.6Zm6.6,19.394a8.417,8.417,0,0,0,6.155-2.226,9.667,9.667,0,0,0,0-12.463,8.468,8.468,0,0,0-6.155-2.233h-4.031v16.922Z" transform="translate(-110.203 -361.079)" fill="#676c72"/>
    <path id="Path_84" data-name="Path 84" d="M433.668,419.574a11.055,11.055,0,0,1-4.118-4.118,11.426,11.426,0,0,1,9.8-17.226,11.977,11.977,0,0,1,4.531.856,9.15,9.15,0,0,1,3.5,2.414l-1.863,1.863a6.757,6.757,0,0,0-2.661-1.972,9.012,9.012,0,0,0-7.8.428,8.4,8.4,0,0,0-3.2,3.147,9.679,9.679,0,0,0,0,9.374,8.439,8.439,0,0,0,3.219,3.147,9.425,9.425,0,0,0,7.975.428,8.344,8.344,0,0,0,2.545-1.82,6.626,6.626,0,0,0,1.29-2.059,9.193,9.193,0,0,0,.609-2.675H439.41v-2.421h10.505a9.812,9.812,0,0,1,.152,1.588,12.223,12.223,0,0,1-.645,3.922,8.591,8.591,0,0,1-2.044,3.349,10.425,10.425,0,0,1-8.026,3.27,11.172,11.172,0,0,1-5.684-1.493Z" transform="translate(-117.691 -360.896)" fill="#676c72"/>
  </g>
</svg>
