<svg id="svg6984" xmlns="http://www.w3.org/2000/svg" viewBox="0 0 480 106.67"><title>frame_nuovo</title><g id="layer1"><g id="g9699-6-4-3"><path id="path5888-8-3-9-62-5-3-10-78-675" d="M480,361.94s-145.16-.15-204.55.31c-22.52.17-38,21.31-40.38,53.29-2,27.16-6.6,53-6.6,53H480Z" transform="translate(0 -361.91)" style="fill:#fff"/><g id="g7253-9-8-1-9-5-3-5-56"><rect id="rect5214-4-4-2-9-1-8-2-1-3-2-0-2" x="120.18" y="101.66" width="120.18" height="5.01" style="fill:#4285f4"/><rect id="rect5214-4-4-8-5-4-5-2-7-2-5-0-3-9" x="239.64" y="101.66" width="120.18" height="5.01" style="fill:#34a853"/><rect id="rect5214-18-5-9-0-4-0-7-6-61-6-1" x="359.82" y="101.66" width="120.18" height="5.01" style="fill:#fbbc05"/><rect id="rect5214-18-2-3-5-93-09-2-55-1-27" y="101.66" width="120.18" height="5.01" style="fill:#ea4335"/></g></g><path d="M281.4,414l13.88-8a6.84,6.84,0,0,0-6.84-11.84l-24,13.85Z" transform="translate(0 -361.91)" style="fill:#ea4335"/><path d="M291.86,434.63a6.84,6.84,0,0,0,3.41-12.75l-24-13.85a6.84,6.84,0,0,0-6.83,11.84l24,13.84A6.79,6.79,0,0,0,291.86,434.63Z" transform="translate(0 -361.91)" style="fill:#4285f4"/><path d="M315.72,434.63a6.81,6.81,0,0,0,3.41-.92l24-13.84-16.73-6.13-14.09,8.14a6.84,6.84,0,0,0,3.41,12.75Z" transform="translate(0 -361.91)" style="fill:#fbbc04"/><path d="M339.69,420.78A6.84,6.84,0,0,0,343.11,408l-24-13.85A6.84,6.84,0,0,0,312.29,406l24,13.85A6.83,6.83,0,0,0,339.69,420.78Z" transform="translate(0 -361.91)" style="fill:#0f9d58"/><path d="M373.66,427.67A15.35,15.35,0,0,1,368,422a16.31,16.31,0,0,1,0-16,15.48,15.48,0,0,1,13.52-7.75,16.54,16.54,0,0,1,6.26,1.18,12.51,12.51,0,0,1,4.82,3.33L390,405.31a9.22,9.22,0,0,0-3.66-2.72,12.43,12.43,0,0,0-10.76.59,11.68,11.68,0,0,0-4.43,4.34,13.42,13.42,0,0,0,0,12.93,11.74,11.74,0,0,0,4.45,4.34,12.2,12.2,0,0,0,5.94,1.54,12,12,0,0,0,5.07-.95,11.55,11.55,0,0,0,3.52-2.51A9.11,9.11,0,0,0,391.9,420a12.68,12.68,0,0,0,.84-3.69H381.58V413h14.49a13.53,13.53,0,0,1,.21,2.19,16.86,16.86,0,0,1-.89,5.41,11.85,11.85,0,0,1-2.82,4.62,14.39,14.39,0,0,1-11.08,4.51A15.37,15.37,0,0,1,373.66,427.67Z" transform="translate(0 -361.91)" style="fill:#676c72"/><path d="M400.74,398.9h9.11a16.41,16.41,0,0,1,8.09,1.92,13.17,13.17,0,0,1,5.31,5.33,17.52,17.52,0,0,1,0,15.67,13.29,13.29,0,0,1-5.31,5.33,16.4,16.4,0,0,1-8.09,1.91h-9.1Zm9.11,26.75a11.61,11.61,0,0,0,8.49-3.07q3.14-3.07,3.14-8.6t-3.14-8.59a11.68,11.68,0,0,0-8.49-3.08h-5.56v23.34Z" transform="translate(0 -361.91)" style="fill:#676c72"/><path d="M435.83,427.67a15.25,15.25,0,0,1-5.68-5.68,15.76,15.76,0,0,1,13.52-23.76,16.52,16.52,0,0,1,6.25,1.18,12.62,12.62,0,0,1,4.83,3.33l-2.57,2.57a9.32,9.32,0,0,0-3.67-2.72,12.43,12.43,0,0,0-10.76.59,11.59,11.59,0,0,0-4.42,4.34,13.35,13.35,0,0,0,0,12.93,11.64,11.64,0,0,0,4.44,4.34,13,13,0,0,0,11,.59,11.51,11.51,0,0,0,3.51-2.51,9.14,9.14,0,0,0,1.78-2.84,12.68,12.68,0,0,0,.84-3.69H443.75V413h14.49a13.53,13.53,0,0,1,.21,2.19,16.86,16.86,0,0,1-.89,5.41,11.85,11.85,0,0,1-2.82,4.62,14.38,14.38,0,0,1-11.07,4.51A15.41,15.41,0,0,1,435.83,427.67Z" transform="translate(0 -361.91)" style="fill:#676c72"/></g></svg>