<svg id="Layer_1" data-name="Layer 1" xmlns="http://www.w3.org/2000/svg" viewBox="0 0 1444.23 302.61"><title>logo</title><path d="M150.24,186.12l101.57-58.63a50,50,0,0,0-50-86.56L26.34,142.25Z" transform="translate(-1.34 -34.23)" style="fill:#ea4335"/><path d="M226.77,336.83a50,50,0,0,0,25-93.26L76.31,142.25a50,50,0,0,0-50,86.56L201.83,330.13A49.8,49.8,0,0,0,226.77,336.83Z" transform="translate(-1.34 -34.23)" style="fill:#4285f4"/><path d="M401.35,336.83a49.76,49.76,0,0,0,24.93-6.7l175.5-101.32L479.45,184,376.31,243.57a50,50,0,0,0,25,93.26Z" transform="translate(-1.34 -34.23)" style="fill:#fbbc04"/><path d="M576.75,235.51a50,50,0,0,0,25-93.26L426.28,40.93a50,50,0,0,0-50,86.56l175.5,101.32A49.77,49.77,0,0,0,576.75,235.51Z" transform="translate(-1.34 -34.23)" style="fill:#0f9d58"/><path d="M825.23,285.93a112.13,112.13,0,0,1-41.6-41.6q-15.42-26.51-15.41-58.55t15.41-58.56a113.19,113.19,0,0,1,98.92-56.7,121.34,121.34,0,0,1,45.76,8.63q21.42,8.63,35.29,24.34l-18.8,18.8A68.1,68.1,0,0,0,918,102.41a89,89,0,0,0-35.13-6.93,88.1,88.1,0,0,0-43.61,11.25,85.69,85.69,0,0,0-32.36,31.74q-12.18,20.5-12.17,47.31t12.17,47.3a85.37,85.37,0,0,0,32.51,31.74,88.42,88.42,0,0,0,43.46,11.25q22.18,0,37.13-6.93a83.44,83.44,0,0,0,25.74-18.34A67.54,67.54,0,0,0,958.67,230a92,92,0,0,0,6.16-27H883.17V178.69h106a92.17,92.17,0,0,1,1.54,16,123.59,123.59,0,0,1-6.47,39.6,87.52,87.52,0,0,1-20.65,33.75q-30.51,33-81.05,33A112.72,112.72,0,0,1,825.23,285.93Z" transform="translate(-1.34 -34.23)" style="fill:#676c72"/><path d="M1023.38,75.45H1090q33.88,0,59.17,14a96.62,96.62,0,0,1,38.83,39q13.54,25,13.56,57.33T1188,243.1a96.62,96.62,0,0,1-38.83,39q-25.27,14-59.17,14h-66.57ZM1090,271.14q39.13,0,62.09-22.5t23-62.86q0-40.38-23-62.87T1090,100.41h-40.68V271.14Z" transform="translate(-1.34 -34.23)" style="fill:#676c72"/><path d="M1280.09,285.93a112.16,112.16,0,0,1-41.61-41.6q-15.4-26.51-15.4-58.55t15.4-58.56a113.22,113.22,0,0,1,98.93-56.7,121.38,121.38,0,0,1,45.76,8.63q21.42,8.63,35.29,24.34l-18.8,18.8a68.17,68.17,0,0,0-26.81-19.88,89,89,0,0,0-35.13-6.93,88.1,88.1,0,0,0-43.61,11.25,85.62,85.62,0,0,0-32.36,31.74q-12.18,20.5-12.17,47.31t12.17,47.3a85.23,85.23,0,0,0,32.51,31.74,88.42,88.42,0,0,0,43.46,11.25q22.18,0,37.13-6.93a83.4,83.4,0,0,0,25.73-18.34,67.37,67.37,0,0,0,13-20.8,92,92,0,0,0,6.16-27H1338V178.69h106a92.17,92.17,0,0,1,1.54,16,123.59,123.59,0,0,1-6.47,39.6,87.52,87.52,0,0,1-20.65,33.75q-30.51,33-81,33A112.69,112.69,0,0,1,1280.09,285.93Z" transform="translate(-1.34 -34.23)" style="fill:#676c72"/></svg>