<svg id="svg5689" xmlns="http://www.w3.org/2000/svg" viewBox="0 0 28.81 24.5"><title>logowtm</title><g id="layer1"><g id="g79-9-7-41"><g id="g81-5-8-9"><g id="g83-4-8-6"><rect id="rect85-3-2-9" x="5.48" y="5" width="4.46" height="14.49" style="fill:#4285f4"/><rect id="rect87-1-9-8" x="18.84" y="5" width="4.49" height="14.49" style="fill:#00bfa5"/><polygon id="polygon89-2-1-2" points="23.33 19.49 16.65 7.2 12.19 7.2 18.86 19.49 23.33 19.49" style="fill:#1ce9b6"/></g><polygon id="polygon91-3-3-5" points="5.48 19.49 12.16 7.2 16.62 7.2 9.95 19.49 5.48 19.49" style="fill:#4fc3f7"/></g><g id="g93-3-5-5"><path id="path95-4-9-4" d="M2.86,21.69V2.86H7.75V0H1.13A1.14,1.14,0,0,0,0,1.13V23.25A1.24,1.24,0,0,0,1.13,24.5H7.74V21.69Z" transform="translate(0 0)" style="fill:#4285f4"/><path id="path97-1-8-9" d="M26,21.69V2.86H21.07V0h6.61a1.14,1.14,0,0,1,1.13,1.13V23.25a1.24,1.24,0,0,1-1.13,1.25H21.07V21.69Z" transform="translate(0 0)" style="fill:#00bfa5"/></g></g></g></svg>