<svg xmlns="http://www.w3.org/2000/svg" width="490" height="116" viewBox="0 0 490 116">
  <defs>
    <style>
      .cls-1 {
        fill: none;
        stroke-width: 3px;
      }

      .cls-1, .cls-2 {
        stroke: #987500;
      }

      .cls-2, .cls-3 {
        fill: #987500;
      }

      .cls-2 {
        stroke-width: 2px;
      }

      .cls-4 {
        stroke: none;
      }

      .cls-5 {
        fill: none;
      }
    </style>
  </defs>
  <g id="Group_79" data-name="Group 79" transform="translate(-1126 -694)">
    <g id="Rectangle_13" data-name="Rectangle 13" class="cls-1" transform="translate(1126 694)">
      <rect class="cls-4" width="490" height="116"/>
      <rect class="cls-5" x="1.5" y="1.5" width="487" height="113"/>
    </g>
    <g id="Group_67" data-name="Group 67" transform="translate(704 169)">
      <g id="Group_64" data-name="Group 64" transform="translate(457.003 542.503)">
        <path id="Path_33" data-name="Path 33" class="cls-2" d="M-31.4-52.069l1.6.072.016,0,.094.007,1.557.238.02.011.083.011,1.492.39.029.019.069.013,1.41.53.016.013.029.006,1.35.593.049.042.064.018,1.238.744.041.042.041.014,1.136.847.032.038.055.035,1.02.952.046.064.054.043.865,1.072.007.02.024.021.807,1.108.03.09.074.085.572,1.239.01.046.019.025.48,1.288.014.076.018.029.33,1.348.008.061.007.014.218,1.392.007.088,0,.005.062,1.435v.047l-.023,1.468v0l-.008.1-.223,1.487-.009.016-.009.067-.407,1.482-.005.008,0,.019-.493,1.495-.016.022-.009.04-.674,1.458-.005.006,0,.009-.742,1.465,0,0v0l-.784,1.478-.041.043-.014.042L-20.8-25.769l-.008,0,0,.011-1.1,1.336-.02.01-.01.024-1.218,1.256-.013.006-.005.012-1.29,1.208h0l-1.3,1.21-.04.016-.015.031-1.432,1.066-.025.008-.024.025-1.517.945-.037.011-.029.026-1.6.783-1.552.825-.046.011-.029.024-1.632.662-.066.013-.028.019-1.68.466-.022,0-.007,0-1.672.409-.04.005-.01.006-1.666.31-.066.006-.01,0-1.657.173-.1.005h-.017l-1.639-.029h-.043l-1.6-.108h0l-.028,0-1.563-.162-.022-.011-.128-.017-1.491-.392-.022-.015-.054-.009L-48.8-16.09l-.013-.01-.024,0-1.363-.561-.071-.058-.089-.026-1.218-.774-.01-.01-.011,0-1.174-.794-.049-.055-.091-.059-1.006-.966-.051-.073-.056-.046-.838-1.091-.005-.015-.017-.015-.8-1.116-.017-.054-.048-.049-.656-1.2-.02-.078-.039-.05-.489-1.284-.02-.1-.023-.038-.3-1.353-.009-.077-.007-.013-.168-1.4,0-.071v0l-.044-1.436V-29h0l0-.049.1-1.465,0,0,0-.047.216-1.488,0,0,0-.019.284-1.511.01-.017.009-.056.466-1.5.024-.033.014-.06.7-1.435.662-1.488.045-.053.018-.058.959-1.352.932-1.413.02-.011.011-.032,1.081-1.349.018-.009.009-.023,1.189-1.284.014-.006.006-.015,1.263-1.235.048-.019.019-.038,1.424-1.063.009,0,0-.005,1.454-1.038.013,0,0-.008,1.488-.99.032-.01.027-.025,1.577-.834h0l1.54-.853.06-.016.039-.031L-40.1-50.6l.04-.008.018-.013,1.663-.521.017,0,.044-.028,1.674-.4.055-.006.012-.007,1.673-.275.09-.007.008,0,1.665-.1h0l1.629-.1.065,0h.045Zm-3.25,2.016-1.634.22-1.653.344-.071.008-1.542.432-1.632.577h-.006l-1.629.573-1.53.814-1.519.867-1.41,1-1.305,1.159h0l-1.3,1.155-1.173,1.235-1.081,1.3-.982,1.31-.723,1.451-.009.01,0,.013-.769,1.381-.482,1.472h0l-.456,1.467-.352,1.422-.145,1.407.012,1.39L-55.9-27.7l.3,1.283.439,1.234.522,1.2.609,1.127.693,1.019.883.889,1,.885,1.008.818,1.175.648,1.219.637,1.3.46,1.441.358,1.449.331,1.487.141,1.574-.023,1.625-.074,1.625-.183,1.617-.326,1.621-.513h0l1.657-.561h0l1.6-.595,1.5-.858,1.5-.919,1.46-.991,1.412-1,1.253-1.162,1.149-1.267,1.058-1.306.906-1.4,0,0v0l.91-1.355.693-1.407.511-1.467.422-1.45.235-1.449.143-1.446.058-1.39-.131-1.341-.252-1.3L-18.62-41.7l-.515-1.159-.691-1.1-.705-1.06-.863-.912-.964-.874-1.05-.775-1.162-.679-1.219-.6-1.319-.441-1.412-.354L-30-49.912l-1.535-.18-1.537-.1Z" transform="translate(57.525 52.07)"/>
        <path id="Path_34" data-name="Path 34" class="cls-2" d="M1.847-50.732l1.467.118,0,0,.038,0,1.422.225.009.005.037,0,1.368.337.016.01.039.007,1.3.466.015.011.026.006,1.226.559.023.02.031.008L10-48.276l.213.217.081.3-.177.428-.428.177-.309-.085L8.27-47.9l-1.16-.552-1.245-.437-1.31-.347-1.365-.235-1.416-.116L.319-49.591l-1.487.108-1.5.2-1.515.342-.125.014-.39-.161-.161-.39.123-.346.31-.192,1.541-.339.027,0,.006,0,1.534-.249.046,0,0,0,1.524-.117.045,0h0l1.5,0h0Z" transform="translate(23.721 51.212)"/>
      </g>
      <g id="Group_65" data-name="Group 65" transform="translate(438.73 583.981)">
        <path id="Path_35" data-name="Path 35" class="cls-2" d="M34.319-95.469l1,.126,0,0,.017,0,.872.153.012.007.042.006.9.281.026.018.044.011.744.385.012.019.041.013.717.512.012.023.032.012.69.639.013.03.027.013.638.766.013.036.022.012.536.842,0,.009,0,0,.536.892.011.04.023.029.382.968h0l.406.991.006.029.01.013.306.993h0l.33,1.015.008.053.008.014.177,1.029.28,1.075.007.055.005.01.137,1.147v0h0l.142,1.2,0,.039v0l.046,1.188.1,1.158,0,.033h0l.032,1.148h0l.034,1.174v.04l-.042,1.138.007,1.084v0l0,.056-.1,1.13-.019,1.1h0v.014l-.046,1.2h0v0l-.052,1.153h0v0l-.058,1.153v0l0,.037-.111,1.091-.017,1.115v0l-.008.106-.147.992L43.007-64.8l0,0,0,.021-.161,1L42.7-62.8l0,.007,0,.031-.192.943-.005.008,0,.027-.251.964,0,.007,0,.017-.286.934-.006.008,0,.018-.317.879-.251.881-.018.027-.012.051-.362.75-.338.748-.294.188-.229-.095-.095-.229.007-.064.165-.813,0,0v-.008l.185-.783.1-.9,0-.007,0-.043.186-.936.172-.942.153-.954.113-.933.107-.992,0,0,0-.024.145-.994.127-1.013,0,0,0-.019.15-.945.032-1.1,0,0,0-.073.139-1.108.094-1.133h0l.1-1.151h0l.107-1.193.082-1.116,0,0,0-.038.154-1.119.057-1.07v-.025l.109-1.127.034-1.155h0l.031-1.129-.049-1.157v-.02h0l-.005-1.179-.111-1.179h0L42.316-84.2l-.267-1.064,0-.031,0-.007-.172-1.015-.321-.987v-.007l0,0-.3-.978-.4-.973v-.006l0,0-.37-.937-.515-.859-.517-.812-.6-.721-.647-.6-.665-.475-.677-.35-.829-.261-.83-.147-.951-.123-.972.022-1.043.1-1.056.172h0l-1.175.194-1.043.316-1.088.372h0l-1.167.424-1.2.495-1.182.624-1.245.707h0l-1.264.756-1.344.911h0l-1.339.934L17.827-87.48l-1.346,1.142-1.344,1.242L13.79-83.772,12.4-82.353l-1.29,1.52-1.271,1.58-1.269,1.63L7.4-76.027l-1.042,1.6h0l-.986,1.518-.785,1.469h0l-.715,1.353h0l-.662,1.271-.561,1.145,0,0,0,.009-.59,1.1-.535,1.036-.436.912-.361.785-.007,0,0,.018-.361.658-.309.606-.009.006-.006.021-.275.439-.14.294-.075.212-.033.023-.034.092-.046.052v.049h0v.011l0,.042.007.016-.026.064.005.013-.088.228-.009,0,0,.008-.069.029-.136.069-.049.005-.038,0-.234-.092,0-.007-.007,0-.03-.072-.07-.144,0-.049v-.03l.043-.1,0-.169v-.008l.079-.226.082-.1.053-.169.009-.013.005-.025.15-.336.011-.007.008-.03.269-.45.3-.6,0,0,0-.007.347-.656.348-.784h0v0L.8-65.876l0,0,0-.008.535-1.052h0v0l.583-1.1.558-1.145h0v-.005l.664-1.281h0l.716-1.357h0l.793-1.484.01-.006.007-.022,1-1.534h0l1.049-1.61.008,0,0-.012,1.178-1.61,0,0,0-.007L9.2-79.754h0v0l1.28-1.584,0,0,0-.005L11.8-82.883l.013-.006.006-.015,1.407-1.43h0v0l1.355-1.329.006,0,0-.006,1.354-1.252.009,0,0-.008,1.354-1.15h0v0l1.3-1.073.019-.007.007-.013L20-90.131h0v0l1.352-.92.016,0,0-.008,1.275-.768.007,0,0,0,1.248-.718.01,0,0,0,1.2-.642.03-.008.007-.01,1.222-.516.012,0,.006,0,1.17-.44h.007l0,0,1.094-.389.012,0,.005,0,1.068-.339.047-.007.013-.007,1.2-.21h0l1.07-.183.031,0,0,0,1.071-.105.032,0h0l1.021-.028h.013Z" transform="translate(1.332 95.472)"/>
      </g>
    </g>
    <g id="Group_68" data-name="Group 68" transform="translate(1226.86 716.016)">
      <path id="Path_43" data-name="Path 43" class="cls-3" d="M1.059-4.138l.4.028.046.021.333.057.081.028.048.036.083.019.4.185.133.117.128.044.23.178.038.077.094.04.023.055.008,0,.227.248h0l.108.045.4.967,0,.065-.011.235-.008.221-.008.309-.017.04-.13.537L3.5-.26l-.023.014-.015.054L3.247.166,3.029.7,2.793.94l-.386.395-.225.238-.2.085-.533.314L1.329,2l-.111.094L.99,2.174.727,2.36l-.3.094L.08,2.507l-.025.011-.127,0-.137.061-.49.105-.045.02-.315.012h-.057l-.506-.144-.1,0h-.032l-.619-.137-.17-.079-.009-.007-.013,0-.327-.162-.235-.213-.143-.06L-3.317,1.8l-.16-.146L-3.7.9-3.7.883V.865l-.16-.387h0V.232h0V.219l0-.24v0l0-.087,0-.044.007-.284,0-.006L-3.83-.6l.012-.085.135-.249.134-.4.126-.172.085-.244.109-.07.053-.1.218-.084.025-.017.056-.135.1-.043.116-.135.126-.038.016-.006.064-.158.1-.1.082-.284.188-.171.057-.137.174-.072.283-.256.117-.059.191-.046.1-.071.374-.114L-.431-3.9l.064-.019.014-.007h.01l.581-.172.131,0,.244.017,0,0,.041,0,.3-.073Z"/>
    </g>
    <g id="Group_78" data-name="Group 78" transform="translate(1226.86 764.016)">
      <path id="Path_43-2" data-name="Path 43" class="cls-3" d="M1.059-4.138l.4.028.046.021.333.057.081.028.048.036.083.019.4.185.133.117.128.044.23.178.038.077.094.04.023.055.008,0,.227.248h0l.108.045.4.967,0,.065-.011.235-.008.221-.008.309-.017.04-.13.537L3.5-.26l-.023.014-.015.054L3.247.166,3.029.7,2.793.94l-.386.395-.225.238-.2.085-.533.314L1.329,2l-.111.094L.99,2.174.727,2.36l-.3.094L.08,2.507l-.025.011-.127,0-.137.061-.49.105-.045.02-.315.012h-.057l-.506-.144-.1,0h-.032l-.619-.137-.17-.079-.009-.007-.013,0-.327-.162-.235-.213-.143-.06L-3.317,1.8l-.16-.146L-3.7.9-3.7.883V.865l-.16-.387h0V.232h0V.219l0-.24v0l0-.087,0-.044.007-.284,0-.006L-3.83-.6l.012-.085.135-.249.134-.4.126-.172.085-.244.109-.07.053-.1.218-.084.025-.017.056-.135.1-.043.116-.135.126-.038.016-.006.064-.158.1-.1.082-.284.188-.171.057-.137.174-.072.283-.256.117-.059.191-.046.1-.071.374-.114L-.431-3.9l.064-.019.014-.007h.01l.581-.172.131,0,.244.017,0,0,.041,0,.3-.073Z"/>
    </g>
    <g id="Group_73" data-name="Group 73" transform="translate(1226.86 740.016)">
      <path id="Path_43-3" data-name="Path 43" class="cls-3" d="M1.059-4.138l.4.028.046.021.333.057.081.028.048.036.083.019.4.185.133.117.128.044.23.178.038.077.094.04.023.055.008,0,.227.248h0l.108.045.4.967,0,.065-.011.235-.008.221-.008.309-.017.04-.13.537L3.5-.26l-.023.014-.015.054L3.247.166,3.029.7,2.793.94l-.386.395-.225.238-.2.085-.533.314L1.329,2l-.111.094L.99,2.174.727,2.36l-.3.094L.08,2.507l-.025.011-.127,0-.137.061-.49.105-.045.02-.315.012h-.057l-.506-.144-.1,0h-.032l-.619-.137-.17-.079-.009-.007-.013,0-.327-.162-.235-.213-.143-.06L-3.317,1.8l-.16-.146L-3.7.9-3.7.883V.865l-.16-.387h0V.232h0V.219l0-.24v0l0-.087,0-.044.007-.284,0-.006L-3.83-.6l.012-.085.135-.249.134-.4.126-.172.085-.244.109-.07.053-.1.218-.084.025-.017.056-.135.1-.043.116-.135.126-.038.016-.006.064-.158.1-.1.082-.284.188-.171.057-.137.174-.072.283-.256.117-.059.191-.046.1-.071.374-.114L-.431-3.9l.064-.019.014-.007h.01l.581-.172.131,0,.244.017,0,0,.041,0,.3-.073Z"/>
    </g>
    <g id="Group_75" data-name="Group 75" transform="translate(1226.86 788.016)">
      <path id="Path_43-4" data-name="Path 43" class="cls-3" d="M1.059-4.138l.4.028.046.021.333.057.081.028.048.036.083.019.4.185.133.117.128.044.23.178.038.077.094.04.023.055.008,0,.227.248h0l.108.045.4.967,0,.065-.011.235-.008.221-.008.309-.017.04-.13.537L3.5-.26l-.023.014-.015.054L3.247.166,3.029.7,2.793.94l-.386.395-.225.238-.2.085-.533.314L1.329,2l-.111.094L.99,2.174.727,2.36l-.3.094L.08,2.507l-.025.011-.127,0-.137.061-.49.105-.045.02-.315.012h-.057l-.506-.144-.1,0h-.032l-.619-.137-.17-.079-.009-.007-.013,0-.327-.162-.235-.213-.143-.06L-3.317,1.8l-.16-.146L-3.7.9-3.7.883V.865l-.16-.387h0V.232h0V.219l0-.24v0l0-.087,0-.044.007-.284,0-.006L-3.83-.6l.012-.085.135-.249.134-.4.126-.172.085-.244.109-.07.053-.1.218-.084.025-.017.056-.135.1-.043.116-.135.126-.038.016-.006.064-.158.1-.1.082-.284.188-.171.057-.137.174-.072.283-.256.117-.059.191-.046.1-.071.374-.114L-.431-3.9l.064-.019.014-.007h.01l.581-.172.131,0,.244.017,0,0,.041,0,.3-.073Z"/>
    </g>
    <g id="Group_72" data-name="Group 72" transform="translate(1245.958 713.659)">
      <path id="Path_47" data-name="Path 47" class="cls-3" d="M4.365-3.489l.007.017.265.11.04.1.078.038.04.053.152.1.106.2.218.109.17.225.022.064.038.02.249.385L5.8-1.9l.1.127.108.294.216.308.053.165.115.145.154.386.387.431.091.24.127.076.315.613.262.461.481.426.592.44h0l.59.443.416.265.614.193h0l.523.168.571-.036.853-.18.789-.268.063-.011.025-.017.7-.194L14.8,2.2l.571-.371.8-.648L16.836.6l.513-.51.407-.608.105-.057.06-.144.554-.556.255-.258.171-.276.1-.252.334-.353.165-.45.063-.037.025-.059.121-.051.009-.016.159-.057.5-.289.222-.041.28-.025.445.15.03,0,.043.021.4.137.047.067.379.136.064.108.1.051.117.3.068.08.034.092.063.032.231.329.138.169.1.282.216.3.009.027.193.259.363.42.04.107.131.126.132.212.2.2.319.214.617.393,0,0,0,0,.49.317.457.188.418.156.371.02h0l.7.037.6.027.452-.125.546-.176.811-.34.112-.023.052-.036.641-.193L31.815.3l.6-.288.092-.021L32.56-.05l.528-.191.447-.25.09-.024.063-.051.432-.183.355-.237.782-.239.031-.012h.122l.151-.079.509-.126.091-.043.234-.015.051,0h0l.535-.016.29-.018.1,0,.385.049.254.065.037.024.09.016.248.089.323.044.156.084.4.107.3.169.188.072.225.053.149.1L40.4-.6l.524.3.1.052h.1l.011,0,.557.1L42.069,0l.358.008.009,0L42.7.04l.345.067.413.011L44.08.063l.143-.007h.03l.528.011.446-.1L45.4-.058l.026-.013.53-.053.452-.165.012,0,0,0,.867-.312.273-.049.061-.032.532-.065.707-.192.538-.2.507-.221.163-.035.07-.047.626-.162h0l.62-.166.089-.012.024-.014.42-.081.563-.156.175-.024.037-.02.706-.1.132-.009.009,0,.394-.02h.033l.7-.022.371-.022.1,0,.2.013.362.046.674-.013h.035l.7.156.107.05.113.018.5,0h.49l.329.032.808.162.016.01.055.007.444.111.357,0h0l.1,0,1.309.092.829.012h.016l.8.02H63.4l.958.032.011,0,.225.021.923.172.846.036h.008l1.116.056h.026l1.114.077,0,0h.026l1.111.105.015.007.1.01,1.1.213.033.019.1.017,1.228.4.662.923-.286.689-.689.286h-.051l-1.226-.063-1.023.05-1.07.1h-.036l0,0L67.516,1.7h-.034l-1.109.056H66.36l-.951.041-.07,0-.189-.012-.918-.112L63.4,1.7h-.017l-.794.02h-.019l-.875.012h-.025l-.078,0-1.309-.062-.508,0H59.76l-.4-.05-.608-.15-.593-.119h-.319l-.638,0h0l-.281-.026-.487-.086-.146-.085-.253-.063-.446-.009-.009,0-.29-.03L54.925.976,54.667.961l-.7-.022h-.027L53.652.924l-.509.044-.528.118L52.5,1.1l-.022.012-.414.059-.563.131h0l-.517.125-.438.185-.045.009-.023.018-.627.234-.1.018-.04.027-.866.238-.18.025-.036.019-.469.06-.706.26h0l-.612.236-.3.057-.07.037-.61.074-.52.141-.364.049-.013.006-.63.012-.621.083-.168.011-.006,0-.635.016h-.043l-.21-.014L42.3,3.181l-.51.011h-.037l-.545-.1-.369-.133h-.2L39.918,2.8l-.487-.243L39.4,2.524l-.042-.011L38.986,2.3l-.124-.033L38.8,2.225,38.662,2.2l-.407-.17-.1-.083-.127-.037-.142-.089-.194-.039L37.6,1.726l-.23-.049-.354-.156-.039,0-.423-.013-.132.063-.649.15H35.74l-.1.063-.129.04-.106.089-.478.208-.469.275-.129.036-.089.07-.56.217L33.137,3l-.036.009-.023.021-.86.41-.089.021-.051.039-.636.233-.78.383-.05.012-.03.025-.613.265-.039.008-.02.016-.691.273-.5.1-.048.022-.871.039h0l-.7.036h0l-.629.035-.1,0-.5-.071-.737-.217-.017-.012-.039-.006-.658-.222-.14-.1-.2-.056-.653-.392,0,0h0l-.649-.4-.021-.022-.024-.007-.486-.321-.079-.148-.2-.084-.476-.48-.06-.146-.222-.223-.166-.284-.3-.373-.032-.088-.057-.03-.35-.514-.364.362-.4.609-.105.057-.06.145-.636.639-.04.017-.016.037-.713.64-.031.012-.012.025-.869.721-.076.027-.026.05-.706.485-.151.047-.041.063-1.021.488-.118.028-.063.045-.758.246L13.28,5.8l-.129.024L13.1,5.86l-1.02.257-.186.023-.03.015-.947.1-.16.009-.4-.055-.812-.225h0l-.809-.23-.146-.1L8.374,5.59l-.648-.4L7.7,5.147l-.083-.028-.642-.48h0l-.64-.482L6.309,4.1,6.24,4.078l-.716-.642L5.4,3.146l-.188-.111-.389-.713L4.807,2.28l-.026-.029-.228-.469-.424-.5L4.05,1.069,3.857.814,3.685.326,3.47-.013,3.408-.228,3.3-.377,3.2-.712,3.059-.973l0-.007L2.95-1.066l-.026.041-.314.149-.1.023-.22.216-.009,0,0,.008-.244.232-.322.129-.09.13L1.269,0,.843.2.66.244.538.56.5.6.328.677.263.787.144.85.1.862.087.879-.2,1.012l-.134.03-.021.028-.14.04-.137.02-.112.052-.382.019-.07.027-.778-.3L-1.984.9-2.006.891l-.1-.24L-2.338.174-2.344.1l0-.055L-2.353.028l0-.158V-.16l.341-.821.293-.122.089-.132.389-.16.11-.022.2-.2L-.762-1.7l.427-.264.241-.053.325-.17L.308-2.2l.017-.026L.487-2.3.548-2.36l.007,0,0-.008.394-.4.16-.067.3-.23.158-.057L1.7-3.2l.212-.172.443-.158.246-.12.04,0,.214-.1.569-.128Z"/>
    </g>
    <g id="Group_77" data-name="Group 77" transform="translate(1245.958 761.659)">
      <path id="Path_47-2" data-name="Path 47" class="cls-3" d="M4.365-3.489l.007.017.265.11.04.1.078.038.04.053.152.1.106.2.218.109.17.225.022.064.038.02.249.385L5.8-1.9l.1.127.108.294.216.308.053.165.115.145.154.386.387.431.091.24.127.076.315.613.262.461.481.426.592.44h0l.59.443.416.265.614.193h0l.523.168.571-.036.853-.18.789-.268.063-.011.025-.017.7-.194L14.8,2.2l.571-.371.8-.648L16.836.6l.513-.51.407-.608.105-.057.06-.144.554-.556.255-.258.171-.276.1-.252.334-.353.165-.45.063-.037.025-.059.121-.051.009-.016.159-.057.5-.289.222-.041.28-.025.445.15.03,0,.043.021.4.137.047.067.379.136.064.108.1.051.117.3.068.08.034.092.063.032.231.329.138.169.1.282.216.3.009.027.193.259.363.42.04.107.131.126.132.212.2.2.319.214.617.393,0,0,0,0,.49.317.457.188.418.156.371.02h0l.7.037.6.027.452-.125.546-.176.811-.34.112-.023.052-.036.641-.193L31.815.3l.6-.288.092-.021L32.56-.05l.528-.191.447-.25.09-.024.063-.051.432-.183.355-.237.782-.239.031-.012h.122l.151-.079.509-.126.091-.043.234-.015.051,0h0l.535-.016.29-.018.1,0,.385.049.254.065.037.024.09.016.248.089.323.044.156.084.4.107.3.169.188.072.225.053.149.1L40.4-.6l.524.3.1.052h.1l.011,0,.557.1L42.069,0l.358.008.009,0L42.7.04l.345.067.413.011L44.08.063l.143-.007h.03l.528.011.446-.1L45.4-.058l.026-.013.53-.053.452-.165.012,0,0,0,.867-.312.273-.049.061-.032.532-.065.707-.192.538-.2.507-.221.163-.035.07-.047.626-.162h0l.62-.166.089-.012.024-.014.42-.081.563-.156.175-.024.037-.02.706-.1.132-.009.009,0,.394-.02h.033l.7-.022.371-.022.1,0,.2.013.362.046.674-.013h.035l.7.156.107.05.113.018.5,0h.49l.329.032.808.162.016.01.055.007.444.111.357,0h0l.1,0,1.309.092.829.012h.016l.8.02H63.4l.958.032.011,0,.225.021.923.172.846.036h.008l1.116.056h.026l1.114.077,0,0h.026l1.111.105.015.007.1.01,1.1.213.033.019.1.017,1.228.4.662.923-.286.689-.689.286h-.051l-1.226-.063-1.023.05-1.07.1h-.036l0,0L67.516,1.7h-.034l-1.109.056H66.36l-.951.041-.07,0-.189-.012-.918-.112L63.4,1.7h-.017l-.794.02h-.019l-.875.012h-.025l-.078,0-1.309-.062-.508,0H59.76l-.4-.05-.608-.15-.593-.119h-.319l-.638,0h0l-.281-.026-.487-.086-.146-.085-.253-.063-.446-.009-.009,0-.29-.03L54.925.976,54.667.961l-.7-.022h-.027L53.652.924l-.509.044-.528.118L52.5,1.1l-.022.012-.414.059-.563.131h0l-.517.125-.438.185-.045.009-.023.018-.627.234-.1.018-.04.027-.866.238-.18.025-.036.019-.469.06-.706.26h0l-.612.236-.3.057-.07.037-.61.074-.52.141-.364.049-.013.006-.63.012-.621.083-.168.011-.006,0-.635.016h-.043l-.21-.014L42.3,3.181l-.51.011h-.037l-.545-.1-.369-.133h-.2L39.918,2.8l-.487-.243L39.4,2.524l-.042-.011L38.986,2.3l-.124-.033L38.8,2.225,38.662,2.2l-.407-.17-.1-.083-.127-.037-.142-.089-.194-.039L37.6,1.726l-.23-.049-.354-.156-.039,0-.423-.013-.132.063-.649.15H35.74l-.1.063-.129.04-.106.089-.478.208-.469.275-.129.036-.089.07-.56.217L33.137,3l-.036.009-.023.021-.86.41-.089.021-.051.039-.636.233-.78.383-.05.012-.03.025-.613.265-.039.008-.02.016-.691.273-.5.1-.048.022-.871.039h0l-.7.036h0l-.629.035-.1,0-.5-.071-.737-.217-.017-.012-.039-.006-.658-.222-.14-.1-.2-.056-.653-.392,0,0h0l-.649-.4-.021-.022-.024-.007-.486-.321-.079-.148-.2-.084-.476-.48-.06-.146-.222-.223-.166-.284-.3-.373-.032-.088-.057-.03-.35-.514-.364.362-.4.609-.105.057-.06.145-.636.639-.04.017-.016.037-.713.64-.031.012-.012.025-.869.721-.076.027-.026.05-.706.485-.151.047-.041.063-1.021.488-.118.028-.063.045-.758.246L13.28,5.8l-.129.024L13.1,5.86l-1.02.257-.186.023-.03.015-.947.1-.16.009-.4-.055-.812-.225h0l-.809-.23-.146-.1L8.374,5.59l-.648-.4L7.7,5.147l-.083-.028-.642-.48h0l-.64-.482L6.309,4.1,6.24,4.078l-.716-.642L5.4,3.146l-.188-.111-.389-.713L4.807,2.28l-.026-.029-.228-.469-.424-.5L4.05,1.069,3.857.814,3.685.326,3.47-.013,3.408-.228,3.3-.377,3.2-.712,3.059-.973l0-.007L2.95-1.066l-.026.041-.314.149-.1.023-.22.216-.009,0,0,.008-.244.232-.322.129-.09.13L1.269,0,.843.2.66.244.538.56.5.6.328.677.263.787.144.85.1.862.087.879-.2,1.012l-.134.03-.021.028-.14.04-.137.02-.112.052-.382.019-.07.027-.778-.3L-1.984.9-2.006.891l-.1-.24L-2.338.174-2.344.1l0-.055L-2.353.028l0-.158V-.16l.341-.821.293-.122.089-.132.389-.16.11-.022.2-.2L-.762-1.7l.427-.264.241-.053.325-.17L.308-2.2l.017-.026L.487-2.3.548-2.36l.007,0,0-.008.394-.4.16-.067.3-.23.158-.057L1.7-3.2l.212-.172.443-.158.246-.12.04,0,.214-.1.569-.128Z"/>
    </g>
    <g id="Group_74" data-name="Group 74" transform="translate(1245.958 737.659)">
      <path id="Path_47-3" data-name="Path 47" class="cls-3" d="M4.365-3.489l.007.017.265.11.04.1.078.038.04.053.152.1.106.2.218.109.17.225.022.064.038.02.249.385L5.8-1.9l.1.127.108.294.216.308.053.165.115.145.154.386.387.431.091.24.127.076.315.613.262.461.481.426.592.44h0l.59.443.416.265.614.193h0l.523.168.571-.036.853-.18.789-.268.063-.011.025-.017.7-.194L14.8,2.2l.571-.371.8-.648L16.836.6l.513-.51.407-.608.105-.057.06-.144.554-.556.255-.258.171-.276.1-.252.334-.353.165-.45.063-.037.025-.059.121-.051.009-.016.159-.057.5-.289.222-.041.28-.025.445.15.03,0,.043.021.4.137.047.067.379.136.064.108.1.051.117.3.068.08.034.092.063.032.231.329.138.169.1.282.216.3.009.027.193.259.363.42.04.107.131.126.132.212.2.2.319.214.617.393,0,0,0,0,.49.317.457.188.418.156.371.02h0l.7.037.6.027.452-.125.546-.176.811-.34.112-.023.052-.036.641-.193L31.815.3l.6-.288.092-.021L32.56-.05l.528-.191.447-.25.09-.024.063-.051.432-.183.355-.237.782-.239.031-.012h.122l.151-.079.509-.126.091-.043.234-.015.051,0h0l.535-.016.29-.018.1,0,.385.049.254.065.037.024.09.016.248.089.323.044.156.084.4.107.3.169.188.072.225.053.149.1L40.4-.6l.524.3.1.052h.1l.011,0,.557.1L42.069,0l.358.008.009,0L42.7.04l.345.067.413.011L44.08.063l.143-.007h.03l.528.011.446-.1L45.4-.058l.026-.013.53-.053.452-.165.012,0,0,0,.867-.312.273-.049.061-.032.532-.065.707-.192.538-.2.507-.221.163-.035.07-.047.626-.162h0l.62-.166.089-.012.024-.014.42-.081.563-.156.175-.024.037-.02.706-.1.132-.009.009,0,.394-.02h.033l.7-.022.371-.022.1,0,.2.013.362.046.674-.013h.035l.7.156.107.05.113.018.5,0h.49l.329.032.808.162.016.01.055.007.444.111.357,0h0l.1,0,1.309.092.829.012h.016l.8.02H63.4l.958.032.011,0,.225.021.923.172.846.036h.008l1.116.056h.026l1.114.077,0,0h.026l1.111.105.015.007.1.01,1.1.213.033.019.1.017,1.228.4.662.923-.286.689-.689.286h-.051l-1.226-.063-1.023.05-1.07.1h-.036l0,0L67.516,1.7h-.034l-1.109.056H66.36l-.951.041-.07,0-.189-.012-.918-.112L63.4,1.7h-.017l-.794.02h-.019l-.875.012h-.025l-.078,0-1.309-.062-.508,0H59.76l-.4-.05-.608-.15-.593-.119h-.319l-.638,0h0l-.281-.026-.487-.086-.146-.085-.253-.063-.446-.009-.009,0-.29-.03L54.925.976,54.667.961l-.7-.022h-.027L53.652.924l-.509.044-.528.118L52.5,1.1l-.022.012-.414.059-.563.131h0l-.517.125-.438.185-.045.009-.023.018-.627.234-.1.018-.04.027-.866.238-.18.025-.036.019-.469.06-.706.26h0l-.612.236-.3.057-.07.037-.61.074-.52.141-.364.049-.013.006-.63.012-.621.083-.168.011-.006,0-.635.016h-.043l-.21-.014L42.3,3.181l-.51.011h-.037l-.545-.1-.369-.133h-.2L39.918,2.8l-.487-.243L39.4,2.524l-.042-.011L38.986,2.3l-.124-.033L38.8,2.225,38.662,2.2l-.407-.17-.1-.083-.127-.037-.142-.089-.194-.039L37.6,1.726l-.23-.049-.354-.156-.039,0-.423-.013-.132.063-.649.15H35.74l-.1.063-.129.04-.106.089-.478.208-.469.275-.129.036-.089.07-.56.217L33.137,3l-.036.009-.023.021-.86.41-.089.021-.051.039-.636.233-.78.383-.05.012-.03.025-.613.265-.039.008-.02.016-.691.273-.5.1-.048.022-.871.039h0l-.7.036h0l-.629.035-.1,0-.5-.071-.737-.217-.017-.012-.039-.006-.658-.222-.14-.1-.2-.056-.653-.392,0,0h0l-.649-.4-.021-.022-.024-.007-.486-.321-.079-.148-.2-.084-.476-.48-.06-.146-.222-.223-.166-.284-.3-.373-.032-.088-.057-.03-.35-.514-.364.362-.4.609-.105.057-.06.145-.636.639-.04.017-.016.037-.713.64-.031.012-.012.025-.869.721-.076.027-.026.05-.706.485-.151.047-.041.063-1.021.488-.118.028-.063.045-.758.246L13.28,5.8l-.129.024L13.1,5.86l-1.02.257-.186.023-.03.015-.947.1-.16.009-.4-.055-.812-.225h0l-.809-.23-.146-.1L8.374,5.59l-.648-.4L7.7,5.147l-.083-.028-.642-.48h0l-.64-.482L6.309,4.1,6.24,4.078l-.716-.642L5.4,3.146l-.188-.111-.389-.713L4.807,2.28l-.026-.029-.228-.469-.424-.5L4.05,1.069,3.857.814,3.685.326,3.47-.013,3.408-.228,3.3-.377,3.2-.712,3.059-.973l0-.007L2.95-1.066l-.026.041-.314.149-.1.023-.22.216-.009,0,0,.008-.244.232-.322.129-.09.13L1.269,0,.843.2.66.244.538.56.5.6.328.677.263.787.144.85.1.862.087.879-.2,1.012l-.134.03-.021.028-.14.04-.137.02-.112.052-.382.019-.07.027-.778-.3L-1.984.9-2.006.891l-.1-.24L-2.338.174-2.344.1l0-.055L-2.353.028l0-.158V-.16l.341-.821.293-.122.089-.132.389-.16.11-.022.2-.2L-.762-1.7l.427-.264.241-.053.325-.17L.308-2.2l.017-.026L.487-2.3.548-2.36l.007,0,0-.008.394-.4.16-.067.3-.23.158-.057L1.7-3.2l.212-.172.443-.158.246-.12.04,0,.214-.1.569-.128Z"/>
    </g>
    <g id="Group_76" data-name="Group 76" transform="translate(1245.958 785.659)">
      <path id="Path_47-4" data-name="Path 47" class="cls-3" d="M4.365-3.489l.007.017.265.11.04.1.078.038.04.053.152.1.106.2.218.109.17.225.022.064.038.02.249.385L5.8-1.9l.1.127.108.294.216.308.053.165.115.145.154.386.387.431.091.24.127.076.315.613.262.461.481.426.592.44h0l.59.443.416.265.614.193h0l.523.168.571-.036.853-.18.789-.268.063-.011.025-.017.7-.194L14.8,2.2l.571-.371.8-.648L16.836.6l.513-.51.407-.608.105-.057.06-.144.554-.556.255-.258.171-.276.1-.252.334-.353.165-.45.063-.037.025-.059.121-.051.009-.016.159-.057.5-.289.222-.041.28-.025.445.15.03,0,.043.021.4.137.047.067.379.136.064.108.1.051.117.3.068.08.034.092.063.032.231.329.138.169.1.282.216.3.009.027.193.259.363.42.04.107.131.126.132.212.2.2.319.214.617.393,0,0,0,0,.49.317.457.188.418.156.371.02h0l.7.037.6.027.452-.125.546-.176.811-.34.112-.023.052-.036.641-.193L31.815.3l.6-.288.092-.021L32.56-.05l.528-.191.447-.25.09-.024.063-.051.432-.183.355-.237.782-.239.031-.012h.122l.151-.079.509-.126.091-.043.234-.015.051,0h0l.535-.016.29-.018.1,0,.385.049.254.065.037.024.09.016.248.089.323.044.156.084.4.107.3.169.188.072.225.053.149.1L40.4-.6l.524.3.1.052h.1l.011,0,.557.1L42.069,0l.358.008.009,0L42.7.04l.345.067.413.011L44.08.063l.143-.007h.03l.528.011.446-.1L45.4-.058l.026-.013.53-.053.452-.165.012,0,0,0,.867-.312.273-.049.061-.032.532-.065.707-.192.538-.2.507-.221.163-.035.07-.047.626-.162h0l.62-.166.089-.012.024-.014.42-.081.563-.156.175-.024.037-.02.706-.1.132-.009.009,0,.394-.02h.033l.7-.022.371-.022.1,0,.2.013.362.046.674-.013h.035l.7.156.107.05.113.018.5,0h.49l.329.032.808.162.016.01.055.007.444.111.357,0h0l.1,0,1.309.092.829.012h.016l.8.02H63.4l.958.032.011,0,.225.021.923.172.846.036h.008l1.116.056h.026l1.114.077,0,0h.026l1.111.105.015.007.1.01,1.1.213.033.019.1.017,1.228.4.662.923-.286.689-.689.286h-.051l-1.226-.063-1.023.05-1.07.1h-.036l0,0L67.516,1.7h-.034l-1.109.056H66.36l-.951.041-.07,0-.189-.012-.918-.112L63.4,1.7h-.017l-.794.02h-.019l-.875.012h-.025l-.078,0-1.309-.062-.508,0H59.76l-.4-.05-.608-.15-.593-.119h-.319l-.638,0h0l-.281-.026-.487-.086-.146-.085-.253-.063-.446-.009-.009,0-.29-.03L54.925.976,54.667.961l-.7-.022h-.027L53.652.924l-.509.044-.528.118L52.5,1.1l-.022.012-.414.059-.563.131h0l-.517.125-.438.185-.045.009-.023.018-.627.234-.1.018-.04.027-.866.238-.18.025-.036.019-.469.06-.706.26h0l-.612.236-.3.057-.07.037-.61.074-.52.141-.364.049-.013.006-.63.012-.621.083-.168.011-.006,0-.635.016h-.043l-.21-.014L42.3,3.181l-.51.011h-.037l-.545-.1-.369-.133h-.2L39.918,2.8l-.487-.243L39.4,2.524l-.042-.011L38.986,2.3l-.124-.033L38.8,2.225,38.662,2.2l-.407-.17-.1-.083-.127-.037-.142-.089-.194-.039L37.6,1.726l-.23-.049-.354-.156-.039,0-.423-.013-.132.063-.649.15H35.74l-.1.063-.129.04-.106.089-.478.208-.469.275-.129.036-.089.07-.56.217L33.137,3l-.036.009-.023.021-.86.41-.089.021-.051.039-.636.233-.78.383-.05.012-.03.025-.613.265-.039.008-.02.016-.691.273-.5.1-.048.022-.871.039h0l-.7.036h0l-.629.035-.1,0-.5-.071-.737-.217-.017-.012-.039-.006-.658-.222-.14-.1-.2-.056-.653-.392,0,0h0l-.649-.4-.021-.022-.024-.007-.486-.321-.079-.148-.2-.084-.476-.48-.06-.146-.222-.223-.166-.284-.3-.373-.032-.088-.057-.03-.35-.514-.364.362-.4.609-.105.057-.06.145-.636.639-.04.017-.016.037-.713.64-.031.012-.012.025-.869.721-.076.027-.026.05-.706.485-.151.047-.041.063-1.021.488-.118.028-.063.045-.758.246L13.28,5.8l-.129.024L13.1,5.86l-1.02.257-.186.023-.03.015-.947.1-.16.009-.4-.055-.812-.225h0l-.809-.23-.146-.1L8.374,5.59l-.648-.4L7.7,5.147l-.083-.028-.642-.48h0l-.64-.482L6.309,4.1,6.24,4.078l-.716-.642L5.4,3.146l-.188-.111-.389-.713L4.807,2.28l-.026-.029-.228-.469-.424-.5L4.05,1.069,3.857.814,3.685.326,3.47-.013,3.408-.228,3.3-.377,3.2-.712,3.059-.973l0-.007L2.95-1.066l-.026.041-.314.149-.1.023-.22.216-.009,0,0,.008-.244.232-.322.129-.09.13L1.269,0,.843.2.66.244.538.56.5.6.328.677.263.787.144.85.1.862.087.879-.2,1.012l-.134.03-.021.028-.14.04-.137.02-.112.052-.382.019-.07.027-.778-.3L-1.984.9-2.006.891l-.1-.24L-2.338.174-2.344.1l0-.055L-2.353.028l0-.158V-.16l.341-.821.293-.122.089-.132.389-.16.11-.022.2-.2L-.762-1.7l.427-.264.241-.053.325-.17L.308-2.2l.017-.026L.487-2.3.548-2.36l.007,0,0-.008.394-.4.16-.067.3-.23.158-.057L1.7-3.2l.212-.172.443-.158.246-.12.04,0,.214-.1.569-.128Z"/>
    </g>
  </g>
</svg>
