<?xml version="1.0" encoding="UTF-8" standalone="no"?>
<!-- Created with Inkscape (http://www.inkscape.org/) -->

<svg
   xmlns:dc="http://purl.org/dc/elements/1.1/"
   xmlns:cc="http://creativecommons.org/ns#"
   xmlns:rdf="http://www.w3.org/1999/02/22-rdf-syntax-ns#"
   xmlns:svg="http://www.w3.org/2000/svg"
   xmlns="http://www.w3.org/2000/svg"
   xmlns:sodipodi="http://sodipodi.sourceforge.net/DTD/sodipodi-0.dtd"
   xmlns:inkscape="http://www.inkscape.org/namespaces/inkscape"
   width="66.003342mm"
   height="10.086962mm"
   viewBox="0 0 233.87011 35.741203"
   id="svg5689"
   version="1.1"
   inkscape:version="0.92.1 r15371"
   sodipodi:docname="WTM.svg">
  <defs
     id="defs5691" />
  <sodipodi:namedview
     id="base"
     pagecolor="#ffffff"
     bordercolor="#666666"
     borderopacity="1.0"
     inkscape:pageopacity="0.0"
     inkscape:pageshadow="2"
     inkscape:zoom="1.979899"
     inkscape:cx="115.31747"
     inkscape:cy="20.347117"
     inkscape:document-units="px"
     inkscape:current-layer="layer1"
     showgrid="false"
     fit-margin-top="0"
     fit-margin-left="0"
     fit-margin-right="0"
     fit-margin-bottom="0"
     inkscape:window-width="1366"
     inkscape:window-height="715"
     inkscape:window-x="-8"
     inkscape:window-y="-8"
     inkscape:window-maximized="1" />
  <metadata
     id="metadata5694">
    <rdf:RDF>
      <cc:Work
         rdf:about="">
        <dc:format>image/svg+xml</dc:format>
        <dc:type
           rdf:resource="http://purl.org/dc/dcmitype/StillImage" />
        <dc:title />
      </cc:Work>
    </rdf:RDF>
  </metadata>
  <g
     inkscape:label="Livello 1"
     inkscape:groupmode="layer"
     id="layer1"
     transform="translate(-168.77921,-328.77736)">
    <g
       id="g45-1-1-3"
       transform="matrix(0.49505958,0,0,0.49505958,163.10533,322.74357)" />
    <g
       id="g57-1-4-3"
       transform="matrix(0.49505958,0,0,0.49505958,163.10533,322.74357)" />
    <g
       id="g79-9-7-41"
       transform="matrix(0.49505958,0,0,0.49505958,163.10533,322.74357)">
      <g
         id="g81-5-8-9">
        <g
           id="g83-4-8-6">
          <rect
             id="rect85-3-2-9"
             height="36.589001"
             width="11.27"
             y="24.82"
             x="25.306999"
             style="fill:#4285f4" />
          <rect
             id="rect87-1-9-8"
             height="36.589001"
             width="11.337"
             y="24.82"
             x="59.023998"
             style="fill:#00bfa5" />
          <polygon
             id="polygon89-2-1-2"
             points="70.36,61.409 53.504,30.362 42.233,30.362 59.09,61.409 "
             style="fill:#1ce9b6" />
        </g>
        <polygon
           id="polygon91-3-3-5"
           points="25.307,61.409 42.164,30.362 53.433,30.362 36.577,61.409 "
           style="fill:#4fc3f7" />
      </g>
      <g
         id="g93-3-5-5">
        <path
           id="path95-4-9-4"
           d="m 18.681,66.961 0,-47.564 12.336,0 0,-7.209 -16.713,0 c -1.564,0 -2.843,1.281 -2.843,2.845 l 0,55.865 c 0,1.564 1.279,3.143 2.843,3.143 l 16.712,0 0,-7.08 -12.335,0 z"
           inkscape:connector-curvature="0"
           style="fill:#4285f4" />
        <path
           id="path97-1-8-9"
           d="m 76.987,66.961 0,-47.564 -12.334,0 0,-7.209 16.71,0 c 1.563,0 2.843,1.281 2.843,2.845 l 0,55.865 c 0,1.564 -1.28,3.143 -2.843,3.143 l -16.71,0 0,-7.08 12.334,0 z"
           inkscape:connector-curvature="0"
           style="fill:#00bfa5" />
      </g>
    </g>
  </g>
</svg>
